<mxfile host="app.diagrams.net" modified="2021-09-07T19:22:19.664Z" agent="5.0 (Macintosh; Intel Mac OS X 10_15_7) AppleWebKit/537.36 (KHTML, like Gecko) Chrome/93.0.4577.63 Safari/537.36" etag="1sW5HGKwMO4JIRBcIsYD" version="15.1.1" type="github">
  <diagram id="sANR0Sa7Du-AlCgByeaL" name="Page-1">
    <mxGraphModel dx="946" dy="473" grid="1" gridSize="10" guides="1" tooltips="1" connect="1" arrows="1" fold="1" page="1" pageScale="1" pageWidth="850" pageHeight="1100" math="0" shadow="0">
      <root>
        <mxCell id="0" />
        <mxCell id="1" parent="0" />
        <mxCell id="qH3xu6opcL6_kooswoq3-1" value="Start" style="rhombus;whiteSpace=wrap;html=1;fillColor=#d5e8d4;strokeColor=#82b366;strokeWidth=3;" vertex="1" parent="1">
          <mxGeometry x="385" y="50" width="80" height="80" as="geometry" />
        </mxCell>
        <mxCell id="qH3xu6opcL6_kooswoq3-2" value="IF:&amp;nbsp; start button is pressed" style="rounded=1;whiteSpace=wrap;html=1;strokeWidth=3;fillColor=#dae8fc;strokeColor=#6c8ebf;" vertex="1" parent="1">
          <mxGeometry x="365" y="160" width="120" height="60" as="geometry" />
        </mxCell>
        <mxCell id="qH3xu6opcL6_kooswoq3-3" value="KEY" style="swimlane;strokeWidth=3;" vertex="1" parent="1">
          <mxGeometry x="60" y="70" width="200" height="200" as="geometry" />
        </mxCell>
        <mxCell id="qH3xu6opcL6_kooswoq3-4" value="&lt;font style=&quot;font-size: 20px&quot;&gt;Blue: Innit function&lt;/font&gt;" style="text;html=1;align=center;verticalAlign=middle;resizable=0;points=[];autosize=1;strokeColor=none;fillColor=none;" vertex="1" parent="qH3xu6opcL6_kooswoq3-3">
          <mxGeometry x="5" y="40" width="180" height="20" as="geometry" />
        </mxCell>
        <mxCell id="qH3xu6opcL6_kooswoq3-7" value="End" style="rhombus;whiteSpace=wrap;html=1;strokeWidth=3;fillColor=#d5e8d4;strokeColor=#82b366;" vertex="1" parent="1">
          <mxGeometry x="385" y="950" width="80" height="80" as="geometry" />
        </mxCell>
        <mxCell id="qH3xu6opcL6_kooswoq3-8" value="" style="endArrow=none;html=1;entryX=0.5;entryY=1;entryDx=0;entryDy=0;strokeWidth=5;" edge="1" parent="1" target="qH3xu6opcL6_kooswoq3-1">
          <mxGeometry width="50" height="50" relative="1" as="geometry">
            <mxPoint x="425" y="160" as="sourcePoint" />
            <mxPoint x="470" y="180" as="targetPoint" />
          </mxGeometry>
        </mxCell>
        <mxCell id="qH3xu6opcL6_kooswoq3-9" value="" style="endArrow=none;html=1;strokeColor=#000000;strokeWidth=5;entryX=1;entryY=0.5;entryDx=0;entryDy=0;" edge="1" parent="1" target="qH3xu6opcL6_kooswoq3-2">
          <mxGeometry width="50" height="50" relative="1" as="geometry">
            <mxPoint x="580" y="190" as="sourcePoint" />
            <mxPoint x="470" y="290" as="targetPoint" />
          </mxGeometry>
        </mxCell>
      </root>
    </mxGraphModel>
  </diagram>
</mxfile>
